<svg width="32" height="32" viewBox="0 0 32 32" fill="none" xmlns="http://www.w3.org/2000/svg">
<rect width="32" height="32" rx="16" fill="#F2F4F7"/>
<path d="M8.66255 21V10.8182H10.1988V19.6776H14.8124V21H8.66255ZM22.1182 13.4929C22.0651 13.0223 21.8464 12.6577 21.4619 12.3991C21.0774 12.1373 20.5935 12.0064 20.0102 12.0064C19.5926 12.0064 19.2313 12.0727 18.9264 12.2053C18.6215 12.3345 18.3845 12.5135 18.2155 12.7422C18.0497 12.9676 17.9669 13.2244 17.9669 13.5128C17.9669 13.7547 18.0232 13.9635 18.1359 14.1392C18.2519 14.3149 18.4027 14.4624 18.5883 14.5817C18.7773 14.6977 18.9794 14.7955 19.1949 14.875C19.4103 14.9512 19.6175 15.0142 19.8163 15.0639L20.8106 15.3224C21.1354 15.402 21.4685 15.5097 21.8099 15.6456C22.1513 15.7815 22.4678 15.9605 22.7595 16.1825C23.0512 16.4046 23.2865 16.6797 23.4655 17.0078C23.6478 17.3359 23.7389 17.7287 23.7389 18.1861C23.7389 18.7628 23.5898 19.2749 23.2915 19.7223C22.9965 20.1697 22.5673 20.5227 22.0038 20.7812C21.4437 21.0398 20.7659 21.169 19.9704 21.169C19.2081 21.169 18.5486 21.0481 17.9917 20.8061C17.4349 20.5642 16.9991 20.2211 16.6842 19.777C16.3693 19.3295 16.1953 18.7992 16.1622 18.1861H17.7034C17.7332 18.554 17.8525 18.8606 18.0613 19.1058C18.2735 19.3478 18.5436 19.5284 18.8717 19.6477C19.2032 19.7637 19.5661 19.8217 19.9605 19.8217C20.3947 19.8217 20.7808 19.7538 21.1189 19.6179C21.4603 19.4787 21.7287 19.2865 21.9243 19.0412C22.1198 18.7926 22.2176 18.5026 22.2176 18.1712C22.2176 17.8696 22.1314 17.6226 21.9591 17.4304C21.79 17.2382 21.5597 17.0791 21.268 16.9531C20.9797 16.8272 20.6532 16.7161 20.2886 16.62L19.0855 16.2919C18.2702 16.0698 17.6238 15.7434 17.1466 15.3125C16.6726 14.8816 16.4356 14.3116 16.4356 13.6023C16.4356 13.0156 16.5947 12.5036 16.9129 12.0661C17.2311 11.6286 17.662 11.2888 18.2055 11.0469C18.7491 10.8016 19.3622 10.679 20.045 10.679C20.7344 10.679 21.3426 10.8 21.8696 11.0419C22.3999 11.2839 22.8175 11.617 23.1224 12.0412C23.4274 12.4621 23.5864 12.946 23.5997 13.4929H22.1182Z" fill="#475467"/>
</svg>
