<svg width="32" height="32" viewBox="0 0 32 32" fill="none" xmlns="http://www.w3.org/2000/svg">
<rect width="32" height="32" rx="16" fill="#F2F4F7"/>
<path d="M14.9597 10.8182V21H13.5478L8.37234 13.5327H8.27788V21H6.74165V10.8182H8.16353L13.3439 18.2955H13.4384V10.8182H14.9597ZM25.6573 14.1293H24.1062C24.0465 13.7978 23.9355 13.5062 23.7731 13.2543C23.6107 13.0024 23.4118 12.7886 23.1765 12.6129C22.9412 12.4373 22.6777 12.3047 22.386 12.2152C22.0977 12.1257 21.7911 12.081 21.4663 12.081C20.8796 12.081 20.3543 12.2285 19.8903 12.5234C19.4296 12.8184 19.065 13.2509 18.7965 13.821C18.5314 14.3911 18.3988 15.0871 18.3988 15.9091C18.3988 16.7377 18.5314 17.437 18.7965 18.0071C19.065 18.5772 19.4312 19.008 19.8952 19.2997C20.3593 19.5914 20.8813 19.7372 21.4613 19.7372C21.7828 19.7372 22.0877 19.6941 22.3761 19.608C22.6677 19.5185 22.9312 19.3875 23.1665 19.2152C23.4019 19.0429 23.6007 18.8324 23.7631 18.5838C23.9289 18.3319 24.0432 18.0436 24.1062 17.7188L25.6573 17.7237C25.5745 18.2242 25.4137 18.6849 25.1751 19.1058C24.9397 19.5234 24.6365 19.8847 24.2653 20.1896C23.8974 20.4912 23.4764 20.7249 23.0025 20.8906C22.5285 21.0563 22.0115 21.1392 21.4513 21.1392C20.5697 21.1392 19.7842 20.9304 19.0948 20.5128C18.4054 20.0919 17.8619 19.4903 17.4641 18.7081C17.0697 17.9259 16.8725 16.9929 16.8725 15.9091C16.8725 14.822 17.0714 13.889 17.4691 13.1101C17.8668 12.3279 18.4104 11.728 19.0998 11.3104C19.7892 10.8894 20.573 10.679 21.4513 10.679C21.9916 10.679 22.4954 10.7569 22.9627 10.9126C23.4334 11.0651 23.8559 11.2905 24.2305 11.5888C24.605 11.8838 24.9149 12.245 25.1602 12.6726C25.4054 13.0968 25.5711 13.5824 25.6573 14.1293Z" fill="#475467"/>
</svg>
